<svg xmlns="http://www.w3.org/2000/svg" xmlns:xlink="http://www.w3.org/1999/xlink" contentStyleType="text/css" height="333px" preserveAspectRatio="none" style="width:608px;height:333px;background:#FFFFFF;" version="1.1" viewBox="0 0 608 333" width="608px" zoomAndPan="magnify"><title>&#201;tats du TDD</title><defs><filter height="1" id="b13chvcacmvkjk0" width="1" x="0" y="0"><feFlood flood-color="#ADD8E6" result="flood"/><feComposite in="SourceGraphic" in2="flood" operator="over"/></filter></defs><g><text fill="#000000" font-family="Segoe UI Black" font-size="14" font-weight="bold" lengthAdjust="spacing" textLength="103.2568" x="245.5461" y="22.9951">&#201;tats du TDD</text><text fill="#000000" font-family="Segoe UI Black" font-size="14" font-weight="bold" lengthAdjust="spacing" textLength="289.6182" x="152.3654" y="39.292">(D&#233;veloppement pilot&#233; par les tests,</text><text fill="#000000" font-family="Segoe UI Black" font-size="14" font-weight="bold" lengthAdjust="spacing" textLength="272.0703" x="161.1394" y="55.5889">anglais: Test-driven development)</text><text fill="#000000" font-family="Segoe UI Black" font-size="14" font-weight="bold" lengthAdjust="spacing" textLength="4.874" x="294.7375" y="71.8857">&#160;</text><rect fill="#FF0000" height="65.875" rx="12.5" ry="12.5" style="stroke:#000000;stroke-width:0.5;" width="93.4063" x="131.3" y="120.5209"/><text fill="#FFFFFF" font-family="Segoe UI Black" font-size="16" font-weight="bold" lengthAdjust="spacing" textLength="83.4063" x="136.3" y="140.3725">Au moins</text><text fill="#FFFFFF" font-family="Segoe UI Black" font-size="16" font-weight="bold" lengthAdjust="spacing" textLength="64.0234" x="145.9914" y="158.9975">un test</text><text fill="#FFFFFF" font-family="Segoe UI Black" font-size="16" font-weight="bold" lengthAdjust="spacing" textLength="64.9609" x="145.5227" y="177.6225">&#233;choue</text><rect fill="#008000" height="65.875" rx="12.5" ry="12.5" style="stroke:#000000;stroke-width:0.5;" width="86.625" x="370.69" y="120.5209"/><text fill="#FFFFFF" font-family="Segoe UI Black" font-size="16" font-weight="bold" lengthAdjust="spacing" textLength="42.8203" x="392.5923" y="140.3725">Tous</text><text fill="#FFFFFF" font-family="Segoe UI Black" font-size="16" font-weight="bold" lengthAdjust="spacing" textLength="76.625" x="375.69" y="158.9975">les tests</text><text fill="#FFFFFF" font-family="Segoe UI Black" font-size="16" font-weight="bold" lengthAdjust="spacing" textLength="71.1875" x="378.4088" y="177.6225">passent</text><rect fill="#FFFF00" height="60.625" rx="12.5" ry="12.5" style="stroke:#000000;stroke-width:0.5;" width="85.0938" x="371.45" y="266.3909"/><text fill="#FF0000" font-family="Segoe UI Black" font-size="16" font-weight="bold" lengthAdjust="spacing" textLength="75.0938" x="376.45" y="286.2425">Pas TDD</text><path d="M397.9969,290.0159 L397.9969,306.0159 L401.9969,306.0159 L401.9969,290.0159 L397.9969,290.0159 M405.9969,290.0159 L405.9969,306.0159 C407.1169,306.0159 408.1169,306.3759 408.8769,307.1359 C409.6369,307.8959 413.4769,315.6159 413.9969,316.6559 C414.5169,317.6959 415.5569,318.2159 416.6369,317.8959 C417.6769,317.5759 418.2369,316.4559 417.8769,315.3759 C417.5569,314.3359 415.9969,309.0159 415.9969,308.0159 C415.9969,307.0159 416.8769,306.0159 417.9969,306.0159 L423.9969,306.0159 C425.1169,306.0159 425.9969,305.1359 425.9969,304.0159 C425.9969,302.8959 421.8769,291.2559 421.8769,291.2559 C421.5569,290.5359 420.8369,290.0159 419.9969,290.0159 L405.9969,290.0159 " fill="#FF0000" style="stroke:;stroke-width:0.0;stroke-dasharray:;"/><ellipse cx="16" cy="153.4609" fill="#222222" rx="10" ry="10" style="stroke:#222222;stroke-width:1.0;"/><!--link *start* to Rouge--><g id="link_*start*_Rouge"><path d="M26.13,153.4609 C46.71,153.4609 88.51,153.4609 125.04,153.4609 " fill="none" id="*start*-to-Rouge" style="stroke:#181818;stroke-width:1.0;"/><polygon fill="#181818" points="131.04,153.4609,122.04,149.4609,126.04,153.4609,122.04,157.4609,131.04,153.4609" style="stroke:#181818;stroke-width:1.0;"/><text fill="#000000" font-family="Segoe UI Black" font-size="16" lengthAdjust="spacing" textLength="44.0156" x="56.8063" y="109.3125">Cr&#233;er</text><text fill="#000000" font-family="Segoe UI Black" font-size="16" lengthAdjust="spacing" textLength="69.3281" x="44.15" y="127.9375">nouveau</text><text fill="#000000" font-family="Segoe UI Black" font-size="16" lengthAdjust="spacing" textLength="30.7266" x="63.4508" y="146.5625">test</text></g><!--link Rouge to Vert--><g id="link_Rouge_Vert"><path d="M225.19,153.4609 C267.56,153.4609 323.26,153.4609 364.47,153.4609 " fill="none" id="Rouge-to-Vert" style="stroke:#181818;stroke-width:1.0;"/><polygon fill="#181818" points="370.47,153.4609,361.47,149.4609,365.47,153.4609,361.47,157.4609,370.47,153.4609" style="stroke:#181818;stroke-width:1.0;"/><text fill="#000000" font-family="Segoe UI Black" font-size="16" lengthAdjust="spacing" textLength="90.0234" x="253.032" y="109.3125">&#201;crire code</text><text fill="#000000" font-family="Segoe UI Black" font-size="16" lengthAdjust="spacing" textLength="78.0547" x="259.0164" y="127.9375">pour faire</text><text fill="#000000" font-family="Segoe UI Black" font-size="16" lengthAdjust="spacing" textLength="109.6875" x="243.2" y="146.5625">passer test(s)</text></g><!--reverse link Rouge to Vert--><g id="link_Rouge_Vert"><path d="M206.8694,191.2079 C221.8994,208.3979 238.71,223.1609 262.2,232.4609 C276.87,238.2609 318.58,238.4109 333.2,232.4609 C356.09,223.1309 376.02,203.8409 390.36,186.6609 " fill="none" id="Rouge-backto-Vert" style="stroke:#181818;stroke-width:1.0;"/><polygon fill="#181818" points="202.92,186.6909,205.8327,196.0992,206.2111,190.455,211.8553,190.8334,202.92,186.6909" style="stroke:#181818;stroke-width:1.0;"/><text fill="#000000" font-family="Segoe UI Black" font-size="16" lengthAdjust="spacing" textLength="5.0859" x="295.3211" y="172.3125">&#160;</text><text fill="#000000" font-family="Segoe UI Black" font-size="16" lengthAdjust="spacing" textLength="44.0156" x="275.8563" y="190.9375">Cr&#233;er</text><text fill="#000000" font-family="Segoe UI Black" font-size="16" lengthAdjust="spacing" textLength="69.3281" x="263.2" y="209.5625">nouveau</text><text fill="#000000" font-family="Segoe UI Black" font-size="16" lengthAdjust="spacing" textLength="30.7266" x="282.5008" y="228.1875">test</text></g><!--link Vert to Vert--><g id="link_Vert_Vert"><path d="M457.49,139.9509 C476.25,138.8409 492.31,143.3409 492.31,153.4609 C492.31,163.5709 482.2395,168.4353 463.4795,167.3253 " fill="none" id="Vert-to-Vert" style="stroke:#181818;stroke-width:1.0;"/><polygon fill="#181818" points="457.49,166.9709,466.238,171.4955,462.4813,167.2663,466.7105,163.5095,457.49,166.9709" style="stroke:#181818;stroke-width:1.0;"/><text fill="#000000" filter="url(#b13chvcacmvkjk0)" font-family="Segoe UI Black" font-size="16" lengthAdjust="spacing" textLength="97.0391" x="498.31" y="159.3125">Refactoriser</text></g><!--link Vert to PasTDD--><g id="link_Vert_PasTDD"><path d="M414,186.8609 C414,210.8109 414,237.1409 414,260.3409 " fill="none" id="Vert-to-PasTDD" style="stroke:#181818;stroke-width:1.0;"/><polygon fill="#181818" points="414,266.3409,418,257.3409,414,261.3409,410,257.3409,414,266.3409" style="stroke:#181818;stroke-width:1.0;"/><text fill="#000000" font-family="Segoe UI Black" font-size="16" lengthAdjust="spacing" textLength="167.5391" x="415" y="232.2425">&#201;crire code sans test</text></g><!--SRC=[RLBDQjj04BxhAGONIb8gGg6K8eGWYIdqKahizXBri98cqfBLZ9ZTjN7Ve8_Yv_2BTVJJu0PVT9ZlPxxvLfrj4B0VmW4QzBNO8LYcn3zR6eoO7dmuEDIls3h4tfqXcs02th4qAFViMA1ofdv-JVZ256Putzc0b-3DjA9Yrrn4xM-43vzUGxSYlB-Ch_79H1T6y9lf4LORR1dXnrUu6nEkaYJOe1jFVzJ8GnDXkrwNTBK-7NVeU1YmHmemMCVXT0Gr1OSU0lhWtvTag7N6-WosEaWRiJiaBM-IZiBhafB4ZndXWMEBO3oiRYFqRCcN56boAkbqh3kEk88tWiqY-8aI9lwMet9VrfPwclTghknM46dXVpTUiq-Al9vQLgz2f_D9PxFSQq_Pnyz5_ZPqiQ_IXlTKv3SJer3R0ph7- -JntIz8nRPTI8ibVmRtSZgYb4GSTsXYIMEeP4PJKUAKEzD6zGyIX9eRrCWS1PwC3fRuCXrpvQ-JYP-winKbNLuoCrysv9M-OER6V9MBM3peMzU1nQfxVZE2nI9HpRzw_Wy6tj1Swry0]--></g></svg>