Error: fontconfig: Didn't find expected font family. Perhaps URW Type 1 fonts need installing?
Warning: no value for width of non-ASCII character 195. Falling back to width of space character
Error: fontconfig: Didn't find expected font family. Perhaps URW Type 1 fonts need installing?
Error: fontconfig: Didn't find expected font family. Perhaps URW Type 1 fonts need installing?
Error: fontconfig: Didn't find expected font family. Perhaps URW Type 1 fonts need installing?
Error: fontconfig: Didn't find expected font family. Perhaps URW Type 1 fonts need installing?
Error: fontconfig: Didn't find expected font family. Perhaps URW Type 1 fonts need installing?
Error: fontconfig: Didn't find expected font family. Perhaps URW Type 1 fonts need installing?
Error: fontconfig: Didn't find expected font family. Perhaps URW Type 1 fonts need installing?
Error: fontconfig: Didn't find expected font family. Perhaps URW Type 1 fonts need installing?
Error: fontconfig: Didn't find expected font family. Perhaps URW Type 1 fonts need installing?
<?xml version="1.0" encoding="UTF-8" standalone="no"?>
<!DOCTYPE svg PUBLIC "-//W3C//DTD SVG 1.1//EN"
 "http://www.w3.org/Graphics/SVG/1.1/DTD/svg11.dtd">
<!-- Generated by graphviz version 10.0.1 (20240210.2158)
 -->
<!-- Title: G Pages: 1 -->
<svg width="379pt" height="470pt"
 viewBox="0.00 0.00 378.50 470.00" xmlns="http://www.w3.org/2000/svg" xmlns:xlink="http://www.w3.org/1999/xlink">
<g id="graph0" class="graph" transform="scale(1 1) rotate(0) translate(4 466)">
<title>G</title>
<polygon fill="white" stroke="none" points="-4,4 -4,-466 374.5,-466 374.5,4 -4,4"/>
<text text-anchor="middle" x="185.25" y="-447.2" font-family="Helvetica,sans-Serif" font-size="12.00">Séparation des couches</text>
<text text-anchor="middle" x="185.25" y="-432.8" font-family="Helvetica,sans-Serif" font-size="12.00">(selon la Figure A17.24/F16.24 de Larman)</text>
<g id="clust1" class="cluster">
<title>cluster_0</title>
<polygon fill="#ddffdd" stroke="#ddffdd" points="83.5,-178 83.5,-331.6 362.5,-331.6 362.5,-178 83.5,-178"/>
<text text-anchor="middle" x="138.5" y="-319.05" font-family="Helvetica,sans-Serif" font-style="oblique" font-size="9.00">Couche présentation</text>
</g>
<g id="clust4" class="cluster">
<title>cluster_1</title>
<polygon fill="#ddddff" stroke="#ddddff" points="76.5,-8 76.5,-140 332.5,-140 332.5,-8 76.5,-8"/>
<text text-anchor="middle" x="122.5" y="-127.45" font-family="Helvetica,sans-Serif" font-style="oblique" font-size="9.00">Couche domaine</text>
</g>
<!-- utilisateur -->
<g id="node1" class="node">
<title>utilisateur</title>
<polygon fill="white" stroke="none" points="151.5,-425.2 95.5,-425.2 95.5,-368.4 151.5,-368.4 151.5,-425.2"/>
<text text-anchor="start" x="117.5" y="-398.2" font-family="Helvetica,sans-Serif" font-weight="bold" font-size="20.00">웃</text>
<text text-anchor="start" x="107.5" y="-379.65" font-family="Helvetica,sans-Serif" font-weight="bold" font-size="9.00">:Joueur</text>
</g>
<!-- pageWeb -->
<g id="node2" class="node">
<title>pageWeb</title>
<polygon fill="white" stroke="black" points="149.51,-304.8 91.49,-304.8 91.49,-268.8 155.51,-268.8 155.51,-298.8 149.51,-304.8"/>
<polyline fill="none" stroke="black" points="149.51,-304.8 149.51,-298.8"/>
<polyline fill="none" stroke="black" points="155.51,-298.8 149.51,-298.8"/>
<text text-anchor="middle" x="123.5" y="-289.5" font-family="Helvetica,sans-Serif" font-size="9.00">Page web</text>
<text text-anchor="middle" x="123.5" y="-278.7" font-family="Helvetica,sans-Serif" font-size="9.00">(navigateur)</text>
</g>
<!-- utilisateur&#45;&gt;pageWeb -->
<g id="edge5" class="edge">
<title>utilisateur&#45;&gt;pageWeb</title>
<path fill="none" stroke="black" stroke-dasharray="5,2" d="M123.5,-368.55C123.5,-352.71 123.5,-332.77 123.5,-316.67"/>
<polygon fill="black" stroke="black" points="127,-316.75 123.5,-306.75 120,-316.75 127,-316.75"/>
<text text-anchor="middle" x="166.78" y="-342.3" font-family="Helvetica,sans-Serif" font-size="9.00"> &#160;appuie sur le bouton</text>
</g>
<!-- routeur -->
<g id="node3" class="node">
<title>routeur</title>
<polygon fill="lightyellow" stroke="black" points="147.5,-222 91.5,-222 91.5,-186 147.5,-186 147.5,-222"/>
<text text-anchor="start" x="103.5" y="-202.3" font-family="Helvetica,sans-Serif" font-weight="bold" font-size="9.00">:Router</text>
</g>
<!-- pageWeb&#45;&gt;routeur -->
<g id="edge1" class="edge">
<title>pageWeb&#45;&gt;routeur</title>
<path fill="none" stroke="black" d="M122.65,-268.66C122.15,-258.56 121.5,-245.5 120.93,-233.85"/>
<polygon fill="black" stroke="black" points="124.43,-233.72 120.44,-223.9 117.43,-234.06 124.43,-233.72"/>
<text text-anchor="middle" x="215" y="-242.25" font-family="Courier,monospace" font-weight="bold" font-size="9.00"> HTTP GET /api/v1/demarrerJeu/Toto</text>
</g>
<!-- routeurNote -->
<g id="node6" class="node">
<title>routeurNote</title>
<polygon fill="yellow" stroke="black" points="266.5,-222 182.5,-222 182.5,-186 272.5,-186 272.5,-216 266.5,-222"/>
<polyline fill="none" stroke="black" points="266.5,-222 266.5,-216"/>
<polyline fill="none" stroke="black" points="272.5,-216 266.5,-216"/>
<text text-anchor="middle" x="227.5" y="-206.25" font-family="Helvetica,sans-Serif" font-style="oblique" font-size="9.00">Routeur Express</text>
<text text-anchor="middle" x="227.5" y="-195.45" font-family="Helvetica,sans-Serif" font-style="oblique" font-size="9.00">(Node)</text>
</g>
<!-- routeur&#45;&gt;routeurNote -->
<g id="edge2" class="edge">
<title>routeur&#45;&gt;routeurNote</title>
<path fill="none" stroke="black" stroke-dasharray="5,2" d="M147.77,-204C159.19,-204 170.61,-204 182.03,-204"/>
</g>
<!-- controleur -->
<g id="node9" class="node">
<title>controleur</title>
<polygon fill="lightyellow" stroke="black" points="154.76,-113.2 84.24,-113.2 84.24,-77.2 154.76,-77.2 154.76,-113.2"/>
<text text-anchor="start" x="96.24" y="-93.5" font-family="Helvetica,sans-Serif" font-weight="bold" font-size="9.00">:JeuDeDes</text>
</g>
<!-- routeur&#45;&gt;controleur -->
<g id="edge4" class="edge">
<title>routeur&#45;&gt;controleur</title>
<path fill="none" stroke="black" d="M119.5,-185.84C119.5,-169.43 119.5,-144.38 119.5,-124.93"/>
<polygon fill="black" stroke="black" points="123,-125.18 119.5,-115.19 116,-125.19 123,-125.18"/>
<polygon fill="yellow" stroke="none" points="2,-152.84 2,-168.84 135,-168.84 135,-152.84 2,-152.84"/>
<text text-anchor="start" x="4" y="-157.69" font-family="Helvetica,sans-Serif" font-style="oblique" font-size="9.00">Opération système (du DSS)</text>
<text text-anchor="start" x="139" y="-158.34" font-family="Courier,monospace" font-weight="bold" font-size="10.00">demarrerJeu(nom)</text>
</g>
<!-- c11 -->
<g id="node4" class="node">
<title>c11</title>
<polygon fill="none" stroke="none" points="290.5,-304.8 236.5,-304.8 236.5,-268.8 290.5,-268.8 290.5,-304.8"/>
</g>
<!-- c10 -->
<g id="node5" class="node">
<title>c10</title>
<polygon fill="none" stroke="none" points="354.25,-222 290.75,-222 290.75,-186 354.25,-186 354.25,-222"/>
<text text-anchor="middle" x="322.5" y="-201.3" font-family="Helvetica,sans-Serif" font-size="9.00"> &#160;&#160;&#160;&#160;&#160;&#160;&#160;&#160;&#160;&#160;&#160;&#160;&#160;&#160;&#160;&#160;&#160;&#160;</text>
</g>
<!-- domain -->
<g id="node7" class="node">
<title>domain</title>
<ellipse fill="none" stroke="none" cx="119.5" cy="-17.8" rx="1.8" ry="1.8"/>
</g>
<!-- controleurNote -->
<g id="node8" class="node">
<title>controleurNote</title>
<polygon fill="yellow" stroke="black" points="246.5,-113.2 190.5,-113.2 190.5,-77.2 252.5,-77.2 252.5,-107.2 246.5,-113.2"/>
<polyline fill="none" stroke="black" points="246.5,-113.2 246.5,-107.2"/>
<polyline fill="none" stroke="black" points="252.5,-107.2 246.5,-107.2"/>
<text text-anchor="middle" x="221.5" y="-92.05" font-family="Helvetica,sans-Serif" font-style="oblique" font-size="9.00">contrôleur</text>
</g>
<!-- controleur&#45;&gt;domain -->
<g id="edge6" class="edge">
<title>controleur&#45;&gt;domain</title>
<path fill="none" stroke="black" d="M119.5,-76.71C119.5,-62.68 119.5,-43.33 119.5,-30.95"/>
<polygon fill="black" stroke="black" points="123,-31.21 119.5,-21.21 116,-31.21 123,-31.21"/>
<text text-anchor="middle" x="158.52" y="-51.1" font-family="Helvetica,sans-Serif" font-size="9.00"> ... (selon la logique</text>
<text text-anchor="middle" x="158.52" y="-40.3" font-family="Helvetica,sans-Serif" font-size="9.00">du domaine)</text>
</g>
<!-- controleur&#45;&gt;controleurNote -->
<g id="edge3" class="edge">
<title>controleur&#45;&gt;controleurNote</title>
<path fill="none" stroke="black" stroke-dasharray="5,2" d="M154.96,-95.2C166.66,-95.2 178.35,-95.2 190.05,-95.2"/>
</g>
<!-- filler6 -->
<g id="node10" class="node">
<title>filler6</title>
<polygon fill="none" stroke="none" points="324.5,-113.2 270.5,-113.2 270.5,-77.2 324.5,-77.2 324.5,-113.2"/>
</g>
</g>
</svg>
